<svg id="svg" version="1.1" xmlns="http://www.w3.org/2000/svg" xmlns:xlink="http://www.w3.org/1999/xlink" width="400" height="259.34065934065933" viewBox="0, 0, 400,259.34065934065933"><g id="svgg"><path id="path0" d="M223.346 47.212 C 221.887 47.473,221.859 47.498,211.288 58.087 L 201.175 68.217 201.170 71.009 C 201.149 81.934,187.078 85.503,182.302 75.794 C 178.576 68.220,185.778 59.461,193.891 61.701 C 195.172 62.055,195.973 61.607,198.035 59.379 C 200.617 56.591,201.892 56.760,178.988 56.859 L 160.700 56.939 159.191 57.680 C 157.498 58.512,156.125 60.134,155.648 61.868 C 155.447 62.598,155.385 70.171,155.437 87.419 L 155.512 111.933 156.081 112.995 C 156.697 114.147,158.012 115.416,159.342 116.143 C 160.133 116.575,162.220 116.602,195.720 116.602 L 231.258 116.602 232.621 115.847 C 235.990 113.980,236.169 113.300,236.268 101.967 L 236.352 92.520 240.455 88.347 C 245.017 83.707,245.499 82.910,244.918 80.969 C 244.044 78.052,241.140 76.943,238.637 78.571 C 238.003 78.983,234.624 82.194,231.128 85.707 L 224.773 92.092 224.773 95.268 C 224.773 106.574,210.425 110.096,205.772 99.932 C 202.312 92.374,210.427 83.298,217.989 86.268 C 218.748 86.566,249.912 55.283,250.299 53.834 C 251.073 50.930,248.435 48.114,245.457 48.666 C 244.425 48.858,200.741 91.729,200.243 93.039 C 200.117 93.371,200.147 94.268,200.316 95.173 C 201.761 102.944,193.279 109.301,186.102 105.827 C 176.024 100.948,180.979 84.909,191.951 86.899 C 192.964 87.082,193.668 87.094,193.966 86.931 C 194.639 86.563,227.284 53.813,227.669 53.120 C 229.225 50.317,226.536 46.642,223.346 47.212 M225.336 47.862 C 226.507 48.351,227.167 49.100,227.492 50.308 C 228.058 52.407,228.475 51.923,210.643 69.834 L 194.079 86.472 190.879 86.492 C 177.700 86.571,175.853 104.607,188.765 107.139 C 195.540 108.468,201.650 102.394,200.763 95.214 C 200.491 93.017,198.216 95.520,222.746 71.031 C 244.196 49.616,244.504 49.323,245.692 49.151 C 248.781 48.704,250.960 51.842,249.480 54.604 C 248.423 56.576,218.504 85.941,217.729 85.767 C 208.996 83.804,201.792 92.053,205.304 99.994 C 210.065 110.760,225.219 107.273,225.277 95.398 L 225.292 92.352 231.907 85.718 C 239.911 77.690,240.821 77.143,243.050 79.019 C 245.852 81.377,245.349 82.834,239.784 88.482 L 235.798 92.528 235.798 101.470 C 235.798 112.839,235.440 114.149,231.926 115.661 L 230.626 116.220 195.404 116.152 C 156.284 116.075,159.592 116.231,157.737 114.377 C 155.898 112.537,156.031 114.698,156.031 86.770 L 156.031 61.608 156.812 60.451 C 157.835 58.937,159.460 57.819,161.010 57.564 C 162.631 57.298,197.634 57.301,198.314 57.568 C 198.779 57.751,198.644 57.966,196.989 59.665 L 195.145 61.559 193.956 61.259 C 183.624 58.658,176.311 71.450,183.902 78.844 C 190.935 85.694,202.662 80.022,201.698 70.237 L 201.517 68.406 211.597 58.316 C 222.910 46.993,223.033 46.899,225.336 47.862 M91.208 156.895 C 91.032 157.178,89.170 165.716,86.615 177.951 C 86.332 179.306,85.993 180.882,85.861 181.453 C 85.605 182.564,84.349 188.436,83.504 192.477 C 83.220 193.833,82.881 195.409,82.750 195.979 C 82.402 197.493,81.523 201.666,81.109 203.761 C 80.912 204.760,80.805 205.723,80.870 205.901 C 80.963 206.155,83.649 206.226,93.105 206.226 C 109.096 206.226,111.706 205.894,117.121 203.177 C 126.595 198.423,131.497 189.078,131.513 175.746 C 131.526 164.394,127.905 158.937,119.195 157.185 C 116.518 156.647,91.521 156.387,91.208 156.895 M144.013 157.782 C 143.858 158.388,143.492 160.023,143.201 161.414 C 142.910 162.805,142.434 165.081,142.142 166.472 C 141.564 169.234,141.295 170.462,140.879 172.244 C 140.729 172.886,140.429 174.287,140.213 175.357 C 139.998 176.427,139.582 178.411,139.289 179.767 C 138.996 181.122,138.634 182.815,138.484 183.528 C 138.072 185.484,137.844 186.554,136.965 190.661 C 136.523 192.730,136.052 194.948,135.920 195.590 C 135.787 196.232,135.439 197.866,135.146 199.222 C 134.007 204.495,133.824 205.518,133.957 205.866 C 134.150 206.368,149.480 206.402,149.855 205.901 C 150.155 205.500,150.258 205.049,153.072 191.829 C 153.497 189.831,153.953 187.730,154.085 187.160 C 154.216 186.589,154.567 184.955,154.864 183.528 C 155.161 182.101,155.511 180.467,155.642 179.896 C 155.773 179.326,156.123 177.691,156.420 176.265 C 156.717 174.838,157.068 173.204,157.200 172.633 C 157.331 172.062,157.800 169.903,158.241 167.834 C 158.682 165.765,159.386 162.511,159.807 160.602 C 160.227 158.693,160.571 157.030,160.571 156.906 C 160.571 156.781,156.909 156.680,152.433 156.680 L 144.296 156.680 144.013 157.782 M203.383 157.676 C 203.236 158.224,203.000 159.245,202.860 159.946 C 202.720 160.646,202.363 162.328,202.068 163.684 C 201.773 165.039,201.423 166.673,201.290 167.315 C 201.157 167.957,200.807 169.591,200.512 170.947 C 199.947 173.539,199.879 173.858,198.962 178.210 C 198.053 182.529,197.980 182.873,197.414 185.473 C 197.120 186.829,196.635 189.105,196.336 190.532 C 196.038 191.958,195.702 193.534,195.590 194.034 C 195.478 194.533,195.128 196.167,194.812 197.665 C 194.496 199.163,194.133 200.856,194.005 201.427 C 193.434 203.978,193.211 205.477,193.349 205.837 C 193.480 206.177,195.494 206.226,209.290 206.226 C 226.919 206.226,225.684 206.360,226.032 204.410 C 226.121 203.911,226.311 202.935,226.454 202.241 C 226.823 200.448,227.121 200.519,219.163 200.519 C 210.084 200.519,210.444 200.680,211.299 196.994 C 211.521 196.036,212.046 193.636,212.466 191.660 C 212.886 189.684,213.589 186.404,214.029 184.371 C 214.469 182.338,215.162 179.099,215.570 177.173 C 215.977 175.246,216.551 172.562,216.845 171.206 C 219.386 159.485,219.715 157.888,219.715 157.276 L 219.715 156.680 211.683 156.680 L 203.652 156.680 203.383 157.676 M250.085 159.032 C 249.484 160.325,248.404 162.631,247.686 164.155 C 246.967 165.679,246.055 167.626,245.659 168.482 C 245.263 169.339,244.516 170.944,244.000 172.049 C 243.483 173.155,242.652 174.935,242.153 176.005 C 241.654 177.075,240.837 178.826,240.337 179.896 C 239.838 180.966,239.021 182.717,238.521 183.787 C 237.527 185.918,236.383 188.370,234.889 191.569 C 234.356 192.711,233.596 194.345,233.199 195.201 C 232.351 197.034,230.120 201.809,229.079 204.021 C 228.052 206.200,228.080 206.226,231.505 206.226 C 234.903 206.226,234.714 206.348,236.115 203.243 C 237.898 199.292,238.392 198.168,238.392 198.058 C 238.392 197.776,240.083 194.371,240.423 193.969 C 240.924 193.376,254.814 193.267,255.611 193.849 C 256.081 194.193,256.127 194.524,256.799 202.554 C 256.935 204.172,257.182 205.660,257.348 205.861 C 257.845 206.460,274.400 206.396,274.630 205.795 C 274.813 205.318,274.504 201.969,273.413 192.607 C 273.280 191.466,273.046 189.306,272.892 187.808 C 272.739 186.310,272.506 184.150,272.376 183.009 C 272.130 180.862,271.794 177.801,271.336 173.541 C 270.878 169.281,270.541 166.219,270.296 164.073 C 270.165 162.931,269.924 160.801,269.760 159.339 L 269.462 156.680 260.320 156.680 L 251.178 156.680 250.085 159.032 M290.429 157.093 C 290.342 157.320,289.928 159.158,289.509 161.178 C 289.091 163.198,288.505 165.960,288.209 167.315 C 287.913 168.671,287.426 170.947,287.128 172.374 C 286.291 176.380,286.204 176.789,285.336 180.804 C 284.889 182.873,284.189 186.141,283.782 188.067 C 283.374 189.994,282.799 192.678,282.504 194.034 C 280.879 201.494,280.310 204.373,280.298 205.188 L 280.285 206.096 292.348 206.175 C 309.156 206.286,311.739 205.966,317.769 203.030 C 327.389 198.347,329.112 184.981,320.675 180.492 C 319.241 179.729,319.576 178.968,321.943 177.619 C 328.206 174.047,329.898 165.218,325.217 160.537 C 323.676 158.995,321.141 157.784,318.179 157.172 C 314.847 156.485,290.689 156.415,290.429 157.093 M113.470 161.677 C 115.691 162.941,116.213 166.242,115.305 173.281 C 112.798 192.716,108.636 201.189,101.322 201.742 C 98.020 201.991,97.903 201.742,98.985 196.745 C 99.354 195.040,99.826 192.827,100.033 191.829 C 100.593 189.124,101.930 182.898,102.206 181.712 C 102.338 181.141,102.924 178.457,103.507 175.746 C 104.091 173.035,104.862 169.475,105.220 167.834 C 105.579 166.193,105.982 164.274,106.117 163.569 C 106.566 161.213,106.750 161.089,109.798 161.094 C 112.062 161.097,112.601 161.183,113.470 161.677 M311.024 161.608 C 314.341 163.300,314.587 169.959,311.503 174.578 C 310.038 176.772,308.729 177.496,305.965 177.641 C 302.489 177.823,302.348 177.606,303.261 173.496 C 306.278 159.921,305.801 161.089,308.330 161.089 C 309.495 161.089,310.318 161.248,311.024 161.608 M253.791 168.929 C 253.876 169.540,254.067 171.498,254.215 173.281 C 254.363 175.065,254.599 177.750,254.738 179.248 C 255.297 185.245,255.355 187.919,254.932 188.270 C 254.279 188.812,243.853 188.596,243.498 188.032 C 243.209 187.574,243.448 186.922,245.560 182.401 C 246.183 181.069,246.693 179.941,246.693 179.896 C 246.693 179.851,247.202 178.724,247.824 177.391 C 248.447 176.058,249.221 174.384,249.545 173.671 C 251.348 169.696,252.175 167.975,252.429 167.669 C 252.927 167.068,253.620 167.709,253.791 168.929 M307.072 182.718 C 312.139 185.338,309.859 198.444,303.790 201.577 C 300.762 203.141,297.430 202.524,297.598 200.433 C 297.899 196.686,300.987 182.944,301.650 182.401 C 302.227 181.929,305.969 182.147,307.072 182.718 M163.772 186.710 C 163.430 186.928,162.568 190.590,162.537 191.958 L 162.516 192.866 173.930 192.938 C 180.208 192.978,185.596 192.949,185.904 192.875 C 186.484 192.734,187.549 189.105,187.549 187.270 L 187.549 186.511 175.811 186.515 C 169.355 186.517,163.937 186.605,163.772 186.710 " stroke="none" fill="#5c93bb" fill-rule="evenodd"></path><path id="path1" d="M0.000 129.702 L 0.000 259.403 200.000 259.403 L 400.000 259.403 400.000 129.702 L 400.000 0.000 200.000 0.000 L 0.000 0.000 0.000 129.702 M226.110 47.118 C 227.958 47.995,228.863 50.136,228.418 52.578 C 228.247 53.516,195.836 86.557,194.202 87.459 C 193.869 87.643,193.225 87.625,192.092 87.400 C 183.551 85.703,177.446 96.504,183.290 102.973 C 189.954 110.349,202.123 104.121,199.717 94.565 C 199.501 93.710,199.511 93.296,199.756 92.838 C 200.364 91.702,243.548 48.919,244.560 48.450 C 247.937 46.886,251.704 50.188,250.805 53.923 C 250.535 55.044,249.493 56.150,234.921 70.774 C 217.788 87.967,218.991 86.935,216.528 86.560 C 204.124 84.675,201.059 102.654,213.333 105.302 C 219.289 106.586,224.254 101.979,224.254 95.167 L 224.254 91.890 230.816 85.310 C 237.888 78.217,238.591 77.631,240.310 77.395 C 243.234 76.995,245.462 78.962,245.493 81.971 C 245.513 83.861,245.278 84.198,240.748 88.783 L 236.965 92.612 236.833 102.013 C 236.671 113.611,236.157 115.168,231.970 116.734 C 230.283 117.365,162.363 117.563,160.212 116.942 C 157.871 116.268,155.846 114.243,155.172 111.902 C 154.558 109.775,154.749 62.842,155.378 61.161 C 156.025 59.432,157.436 57.958,159.274 57.092 L 160.700 56.420 179.248 56.341 C 203.216 56.240,201.960 55.998,198.023 59.954 C 195.487 62.501,195.285 62.575,192.497 61.977 C 186.521 60.696,180.643 66.986,181.969 73.246 C 184.422 84.831,200.580 82.786,200.635 70.883 L 200.649 67.966 210.891 57.722 C 222.705 45.904,223.048 45.665,226.110 47.118 M193.625 67.290 C 196.196 68.797,196.760 72.320,194.789 74.565 C 191.750 78.026,186.230 75.657,186.564 71.036 C 186.818 67.533,190.608 65.522,193.625 67.290 M253.544 68.292 C 254.129 68.626,254.774 69.290,255.068 69.858 C 257.665 74.888,249.094 80.733,246.164 75.930 C 243.625 71.767,249.315 65.878,253.544 68.292 M216.155 91.326 C 220.281 92.471,220.867 97.934,217.086 99.994 C 212.506 102.487,207.890 96.743,211.362 92.871 C 212.745 91.329,214.329 90.819,216.155 91.326 M192.452 92.464 C 195.611 94.098,196.152 98.441,193.450 100.480 C 189.481 103.476,184.261 99.649,186.009 95.023 C 186.905 92.651,190.246 91.324,192.452 92.464 M208.446 121.509 C 208.870 121.819,208.963 122.261,209.034 124.298 C 209.137 127.237,209.253 127.367,211.788 127.368 C 216.388 127.370,218.152 132.222,214.262 134.176 C 212.842 134.890,179.053 134.872,177.687 134.157 C 173.822 132.134,175.678 127.370,180.332 127.368 C 183.021 127.367,183.139 127.231,183.139 124.119 C 183.139 122.075,183.211 121.644,183.593 121.422 C 184.368 120.970,207.821 121.053,208.446 121.509 M119.362 156.437 C 128.215 158.201,131.931 163.443,132.225 174.578 C 132.720 193.312,123.493 205.068,106.974 206.749 C 102.472 207.207,80.472 206.991,80.141 206.485 C 79.803 205.971,80.227 203.815,85.093 181.258 C 88.854 163.825,90.013 158.350,90.013 158.017 C 90.013 157.843,90.182 157.296,90.389 156.801 L 90.765 155.901 103.720 155.901 C 115.770 155.901,116.863 155.939,119.362 156.437 M161.090 156.291 C 161.274 156.512,161.349 156.989,161.265 157.394 C 161.183 157.786,160.767 159.741,160.340 161.738 C 159.913 163.735,159.027 167.879,158.372 170.947 C 157.717 174.014,156.838 178.100,156.420 180.026 C 154.117 190.626,152.954 196.011,151.919 200.869 C 151.285 203.843,150.632 206.411,150.468 206.576 C 150.059 206.985,134.339 207.144,133.596 206.746 C 132.932 206.391,132.929 205.624,133.579 202.678 C 133.857 201.419,134.328 199.222,134.627 197.795 C 134.926 196.368,135.278 194.734,135.409 194.163 C 135.540 193.593,135.879 192.017,136.162 190.661 C 137.089 186.236,138.276 180.697,138.525 179.637 C 138.795 178.493,141.255 166.932,142.444 161.219 C 143.306 157.081,143.415 156.674,143.773 156.226 C 144.193 155.700,160.651 155.763,161.090 156.291 M220.470 156.378 C 220.611 156.641,220.678 157.078,220.620 157.351 C 220.562 157.624,220.166 159.481,219.740 161.479 C 218.792 165.925,217.665 171.186,216.628 176.005 C 216.198 178.003,215.486 181.329,215.046 183.398 C 214.606 185.467,214.137 187.626,214.004 188.197 C 212.487 194.689,211.658 199.312,211.976 199.513 C 212.166 199.634,215.539 199.734,219.471 199.737 C 228.337 199.742,227.743 199.476,227.082 203.136 C 226.721 205.136,226.446 205.988,226.020 206.420 L 225.445 207.004 209.379 207.004 C 190.961 207.004,191.937 207.124,192.453 204.924 C 192.603 204.285,193.317 200.960,194.039 197.536 C 194.761 194.112,195.632 190.026,195.974 188.457 C 196.317 186.887,197.018 183.619,197.533 181.193 C 199.769 170.661,201.114 164.341,201.866 160.830 C 202.309 158.761,202.832 156.806,203.028 156.485 L 203.384 155.901 211.800 155.901 C 219.703 155.901,220.231 155.930,220.470 156.378 M270.027 156.398 C 270.173 156.671,270.525 159.035,270.809 161.651 C 271.296 166.133,271.536 168.291,272.134 173.541 C 272.271 174.754,272.731 179.014,273.154 183.009 C 273.577 187.004,274.044 191.323,274.190 192.607 C 274.337 193.891,274.579 196.051,274.729 197.406 C 274.878 198.761,275.110 200.721,275.244 201.762 C 275.647 204.907,275.568 206.423,274.985 206.735 C 273.946 207.291,257.407 207.083,256.831 206.506 C 256.295 205.970,256.237 205.597,255.755 199.481 C 255.290 193.583,255.999 194.095,248.249 194.061 C 240.660 194.028,241.147 193.825,239.436 197.728 C 235.065 207.697,235.680 206.995,231.306 207.000 C 226.786 207.006,226.782 206.996,229.313 201.686 C 230.311 199.590,231.128 197.839,231.128 197.795 C 231.128 197.751,231.946 196.000,232.944 193.904 C 233.943 191.808,234.760 190.057,234.760 190.013 C 234.760 189.969,235.577 188.218,236.576 186.122 C 237.575 184.026,238.392 182.275,238.392 182.231 C 238.392 182.187,239.209 180.436,240.208 178.340 C 241.206 176.244,242.023 174.493,242.023 174.449 C 242.023 174.405,242.840 172.654,243.839 170.558 C 244.838 168.462,245.655 166.714,245.655 166.673 C 245.655 166.632,246.368 165.097,247.240 163.261 C 248.113 161.424,249.111 159.280,249.459 158.495 C 249.807 157.711,250.264 156.806,250.474 156.485 L 250.855 155.901 260.308 155.901 C 269.353 155.901,269.773 155.923,270.027 156.398 M317.639 156.279 C 329.889 158.501,332.917 170.858,322.928 177.857 C 320.493 179.564,320.522 179.432,322.311 180.664 C 325.124 182.602,326.588 185.491,326.788 189.501 C 327.254 198.828,319.795 205.459,307.411 206.730 C 303.881 207.092,280.555 207.097,279.879 206.735 C 279.215 206.380,279.238 205.686,280.039 201.933 C 280.404 200.228,280.807 198.307,280.935 197.665 C 281.064 197.023,281.410 195.389,281.705 194.034 C 282.000 192.678,282.350 191.044,282.483 190.402 C 282.743 189.138,284.027 183.134,284.840 179.377 C 285.118 178.093,285.630 175.700,285.978 174.060 C 286.326 172.419,287.033 169.092,287.549 166.667 C 288.064 164.241,288.726 161.089,289.019 159.663 C 289.311 158.236,289.716 156.806,289.918 156.485 L 290.284 155.901 302.924 155.902 C 312.844 155.902,316.011 155.983,317.639 156.279 M107.166 162.711 C 107.019 163.174,105.948 167.990,104.787 173.411 C 101.793 187.394,101.647 188.074,100.264 194.482 C 98.778 201.368,98.743 201.193,101.550 200.932 C 108.023 200.331,112.025 192.037,114.388 174.320 C 115.747 164.134,114.920 161.868,109.839 161.868 L 107.433 161.868 107.166 162.711 M306.658 162.322 C 305.990 163.615,303.418 176.441,303.780 176.671 C 304.276 176.985,306.777 176.973,307.934 176.652 C 312.564 175.366,314.647 165.016,310.792 162.453 C 309.645 161.691,307.027 161.608,306.658 162.322 M252.460 169.447 C 252.204 169.756,250.393 173.585,248.254 178.340 C 247.934 179.053,247.435 180.162,247.146 180.804 C 246.858 181.446,246.112 183.062,245.490 184.395 C 243.769 188.079,243.454 187.808,249.456 187.808 L 254.554 187.808 254.374 184.890 C 254.276 183.285,254.091 180.804,253.963 179.377 C 253.836 177.951,253.604 175.297,253.448 173.481 C 253.125 169.715,252.923 168.890,252.460 169.447 M302.127 183.253 C 301.634 183.747,301.669 183.622,300.770 188.067 C 297.786 202.825,297.850 201.556,300.089 201.556 C 302.882 201.556,304.646 200.605,306.304 198.205 C 309.695 193.296,310.042 185.396,306.945 183.587 C 305.749 182.888,302.704 182.677,302.127 183.253 M188.317 186.110 C 188.801 186.693,187.490 192.706,186.745 193.320 C 185.839 194.068,162.625 194.013,161.874 193.261 C 161.591 192.979,161.409 192.600,161.467 192.418 C 161.526 192.237,161.826 190.921,162.136 189.494 C 162.445 188.067,162.864 186.637,163.067 186.316 L 163.436 185.733 175.720 185.733 C 186.144 185.733,188.051 185.790,188.317 186.110 " stroke="none" fill="#f3fbfb" fill-rule="evenodd"></path><path id="path2" d="M222.706 47.860 C 221.908 48.145,219.417 50.489,211.597 58.316 L 201.517 68.406 201.698 70.237 C 202.662 80.022,190.935 85.694,183.902 78.844 C 176.311 71.450,183.624 58.658,193.956 61.259 L 195.145 61.559 196.989 59.665 C 198.644 57.966,198.779 57.751,198.314 57.568 C 197.634 57.301,162.631 57.298,161.010 57.564 C 159.460 57.819,157.835 58.937,156.812 60.451 L 156.031 61.608 156.031 86.770 C 156.031 114.698,155.898 112.537,157.737 114.377 C 159.592 116.231,156.284 116.075,195.404 116.152 L 230.626 116.220 231.926 115.661 C 235.440 114.149,235.798 112.839,235.798 101.470 L 235.798 92.528 239.784 88.482 C 245.349 82.834,245.852 81.377,243.050 79.019 C 240.821 77.143,239.911 77.690,231.907 85.718 L 225.292 92.352 225.277 95.398 C 225.219 107.273,210.065 110.760,205.304 99.994 C 201.792 92.053,208.996 83.804,217.729 85.767 C 218.504 85.941,248.423 56.576,249.480 54.604 C 250.960 51.842,248.781 48.704,245.692 49.151 C 244.504 49.323,244.196 49.616,222.746 71.031 C 198.216 95.520,200.491 93.017,200.763 95.214 C 202.241 107.176,186.126 112.086,180.988 101.239 C 177.592 94.069,182.640 86.541,190.879 86.492 L 194.079 86.472 210.643 69.834 C 228.475 51.923,228.058 52.407,227.492 50.308 C 226.896 48.094,224.907 47.076,222.706 47.860 " stroke="none" fill="#1c3c64" fill-rule="evenodd"></path><path id="path3" d="M189.235 67.292 C 185.992 68.734,185.897 73.723,189.081 75.402 C 193.398 77.680,197.776 72.542,194.872 68.607 C 193.755 67.094,191.083 66.471,189.235 67.292 M250.419 67.975 C 248.755 68.323,246.055 70.973,245.759 72.547 C 244.838 77.458,249.956 79.288,253.659 75.372 C 257.003 71.836,254.901 67.038,250.419 67.975 M213.100 91.800 C 210.147 93.163,209.438 96.591,211.625 98.929 C 213.513 100.948,216.482 100.868,218.344 98.747 C 221.461 95.197,217.399 89.816,213.100 91.800 M188.091 92.909 C 184.091 95.652,186.101 101.891,190.814 101.360 C 194.955 100.893,196.389 96.185,193.280 93.264 C 192.120 92.174,189.431 91.990,188.091 92.909 M183.709 121.712 C 183.521 121.901,183.398 122.815,183.398 124.030 C 183.398 127.180,183.331 127.266,180.744 127.427 C 175.808 127.735,173.907 132.050,177.860 133.973 C 179.280 134.664,213.304 134.561,214.449 133.863 C 218.220 131.564,215.829 127.393,210.728 127.373 C 208.830 127.366,208.820 127.350,208.820 124.475 C 208.820 121.069,210.186 121.401,196.152 121.401 C 187.062 121.401,183.943 121.479,183.709 121.712 " stroke="none" fill="#ec7d25" fill-rule="evenodd"></path><path id="path4" d="M221.915 47.091 C 221.485 47.303,216.524 52.087,210.891 57.722 L 200.649 67.966 200.635 70.883 C 200.580 82.786,184.422 84.831,181.969 73.246 C 180.643 66.986,186.521 60.696,192.497 61.977 C 195.285 62.575,195.487 62.501,198.023 59.954 C 201.960 55.998,203.216 56.240,179.248 56.341 L 160.700 56.420 159.274 57.092 C 157.436 57.958,156.025 59.432,155.378 61.161 C 154.749 62.842,154.558 109.775,155.172 111.902 C 155.846 114.243,157.871 116.268,160.212 116.942 C 162.363 117.563,230.283 117.365,231.970 116.734 C 236.157 115.168,236.671 113.611,236.833 102.013 L 236.965 92.612 240.748 88.783 C 245.278 84.198,245.513 83.861,245.493 81.971 C 245.462 78.962,243.234 76.995,240.310 77.395 C 238.591 77.631,237.888 78.217,230.816 85.310 L 224.254 91.890 224.254 95.167 C 224.254 101.979,219.289 106.586,213.333 105.302 C 201.059 102.654,204.124 84.675,216.528 86.560 C 218.991 86.935,217.788 87.967,234.921 70.774 C 249.493 56.150,250.535 55.044,250.805 53.923 C 251.704 50.188,247.937 46.886,244.560 48.450 C 243.548 48.919,200.364 91.702,199.756 92.838 C 199.511 93.296,199.501 93.710,199.717 94.565 C 202.123 104.121,189.954 110.349,183.290 102.973 C 177.446 96.504,183.551 85.703,192.092 87.400 C 194.262 87.832,192.511 89.370,211.460 70.381 C 229.781 52.020,228.779 53.195,228.469 50.439 C 228.143 47.546,224.629 45.751,221.915 47.091 M226.374 47.865 C 227.846 48.830,228.524 51.580,227.669 53.120 C 227.284 53.813,194.639 86.563,193.966 86.931 C 193.668 87.094,192.964 87.082,191.951 86.899 C 180.979 84.909,176.024 100.948,186.102 105.827 C 193.279 109.301,201.761 102.944,200.316 95.173 C 200.147 94.268,200.117 93.371,200.243 93.039 C 200.741 91.729,244.425 48.858,245.457 48.666 C 248.435 48.114,251.073 50.930,250.299 53.834 C 249.912 55.283,218.748 86.566,217.989 86.268 C 215.610 85.334,211.274 86.105,208.954 87.875 C 201.251 93.752,205.244 105.707,214.910 105.707 C 221.085 105.707,224.773 101.804,224.773 95.268 L 224.773 92.092 231.128 85.707 C 234.624 82.194,238.003 78.983,238.637 78.571 C 241.140 76.943,244.044 78.052,244.918 80.969 C 245.499 82.910,245.017 83.707,240.455 88.347 L 236.352 92.520 236.268 101.967 C 236.169 113.300,235.990 113.980,232.621 115.847 L 231.258 116.602 195.720 116.602 C 162.220 116.602,160.133 116.575,159.342 116.143 C 158.012 115.416,156.697 114.147,156.081 112.995 L 155.512 111.933 155.437 87.419 C 155.385 70.171,155.447 62.598,155.648 61.868 C 156.125 60.134,157.498 58.512,159.191 57.680 L 160.700 56.939 178.988 56.859 C 201.892 56.760,200.617 56.591,198.035 59.379 C 195.973 61.607,195.172 62.055,193.891 61.701 C 185.778 59.461,178.576 68.220,182.302 75.794 C 187.078 85.503,201.149 81.934,201.170 71.009 L 201.175 68.217 211.288 58.087 C 216.850 52.516,221.634 47.826,221.920 47.666 C 223.239 46.925,225.064 47.007,226.374 47.865 M189.429 66.934 C 188.617 67.261,188.693 67.490,189.511 67.179 C 191.287 66.504,193.576 67.097,194.867 68.568 L 195.362 69.131 194.959 68.467 C 194.068 66.994,191.234 66.209,189.429 66.934 M247.871 69.295 C 247.070 70.028,246.288 70.874,246.133 71.176 C 245.978 71.478,246.296 71.214,246.840 70.588 C 247.384 69.963,248.291 69.117,248.856 68.708 C 249.421 68.298,249.758 67.964,249.606 67.964 C 249.453 67.964,248.673 68.563,247.871 69.295 M254.153 68.979 C 254.615 69.441,254.994 69.947,254.994 70.102 C 254.994 70.258,255.061 70.317,255.144 70.234 C 255.369 70.009,254.480 68.763,253.857 68.429 C 253.505 68.241,253.609 68.435,254.153 68.979 M186.764 69.667 C 185.842 72.091,187.751 76.005,189.855 76.005 C 190.058 76.005,189.710 75.734,189.081 75.402 C 187.141 74.379,186.214 71.795,187.023 69.667 C 187.163 69.301,187.218 69.001,187.147 69.001 C 187.075 69.001,186.903 69.301,186.764 69.667 M195.492 72.990 C 195.264 73.897,194.183 75.102,193.252 75.488 C 192.817 75.668,192.512 75.867,192.575 75.930 C 192.796 76.151,194.240 75.235,194.893 74.459 C 195.567 73.659,195.995 72.692,195.775 72.472 C 195.707 72.404,195.580 72.638,195.492 72.990 M255.076 73.346 C 254.808 74.208,254.815 74.261,255.143 73.816 C 255.452 73.394,255.667 72.374,255.446 72.374 C 255.410 72.374,255.243 72.811,255.076 73.346 M245.461 73.541 C 245.464 74.112,245.517 74.314,245.579 73.992 C 245.641 73.669,245.639 73.202,245.574 72.954 C 245.509 72.706,245.458 72.970,245.461 73.541 M253.061 75.922 C 252.213 76.721,251.746 77.251,252.024 77.099 C 252.516 76.830,254.960 74.439,254.723 74.458 C 254.658 74.463,253.910 75.122,253.061 75.922 M246.229 75.986 C 246.434 76.332,246.884 76.784,247.230 76.991 L 247.860 77.366 247.284 76.880 C 246.967 76.613,246.517 76.161,246.283 75.875 C 245.877 75.381,245.875 75.386,246.229 75.986 M190.859 76.189 C 191.182 76.251,191.649 76.248,191.897 76.183 C 192.145 76.118,191.881 76.068,191.310 76.071 C 190.739 76.073,190.536 76.127,190.859 76.189 M248.339 77.622 C 248.503 77.727,249.105 77.813,249.676 77.813 C 250.246 77.813,250.848 77.727,251.013 77.622 C 251.178 77.518,250.576 77.432,249.676 77.432 C 248.776 77.432,248.174 77.518,248.339 77.622 M212.581 91.793 C 212.153 92.057,211.571 92.553,211.288 92.894 C 210.851 93.422,210.890 93.410,211.548 92.816 C 211.973 92.431,212.730 91.940,213.230 91.724 C 213.729 91.507,213.962 91.326,213.748 91.321 C 213.534 91.316,213.009 91.528,212.581 91.793 M216.752 91.802 C 217.334 92.066,218.132 92.677,218.524 93.158 C 218.917 93.640,219.122 93.800,218.981 93.515 C 218.505 92.552,216.831 91.302,216.035 91.316 C 215.847 91.319,216.170 91.538,216.752 91.802 M189.235 92.219 C 189.829 92.424,192.474 92.505,192.164 92.309 C 191.980 92.192,191.187 92.104,190.402 92.113 C 189.617 92.122,189.092 92.169,189.235 92.219 M187.125 93.481 C 186.502 94.104,185.992 94.763,185.992 94.946 C 185.992 95.128,186.258 94.884,186.582 94.403 C 186.906 93.921,187.566 93.262,188.047 92.937 C 188.529 92.613,188.773 92.348,188.590 92.348 C 188.408 92.348,187.749 92.858,187.125 93.481 M193.436 93.386 C 193.893 93.885,194.442 94.702,194.658 95.201 C 194.874 95.700,195.056 95.957,195.061 95.772 C 195.079 95.185,194.369 94.061,193.473 93.256 L 192.607 92.478 193.436 93.386 M210.149 95.793 C 210.096 97.409,211.745 100.130,212.778 100.130 C 212.893 100.130,212.571 99.763,212.061 99.316 C 210.892 98.289,210.615 97.765,210.375 96.127 C 210.198 94.922,210.179 94.894,210.149 95.793 M219.521 95.850 C 219.524 96.420,219.577 96.623,219.639 96.300 C 219.701 95.978,219.698 95.511,219.633 95.263 C 219.569 95.015,219.518 95.279,219.521 95.850 M185.737 97.428 C 185.739 97.844,185.852 98.359,185.989 98.573 C 186.158 98.838,186.186 98.631,186.078 97.925 C 185.881 96.643,185.732 96.424,185.737 97.428 M219.216 97.340 C 219.205 97.590,218.758 98.279,218.223 98.873 C 217.688 99.467,217.492 99.802,217.787 99.619 C 218.525 99.161,219.536 97.632,219.372 97.223 C 219.285 97.008,219.229 97.051,219.216 97.340 M194.589 98.699 C 194.385 99.264,193.829 99.944,193.195 100.403 C 192.615 100.824,192.234 101.167,192.349 101.167 C 193.162 101.167,195.246 98.707,195.016 98.019 C 194.968 97.875,194.776 98.182,194.589 98.699 M186.481 99.555 C 186.827 100.201,188.292 101.289,188.515 101.066 C 188.602 100.979,188.540 100.908,188.379 100.908 C 188.217 100.908,187.659 100.482,187.139 99.962 C 186.612 99.435,186.320 99.255,186.481 99.555 M213.579 100.450 C 213.743 100.555,214.345 100.641,214.916 100.641 C 215.486 100.641,216.088 100.555,216.253 100.450 C 216.418 100.345,215.816 100.259,214.916 100.259 C 214.016 100.259,213.414 100.345,213.579 100.450 M189.948 101.606 C 190.198 101.671,190.606 101.671,190.856 101.606 C 191.106 101.540,190.901 101.487,190.402 101.487 C 189.903 101.487,189.698 101.540,189.948 101.606 M183.593 121.422 C 183.206 121.647,183.147 122.038,183.192 124.073 L 183.245 126.459 183.332 124.213 C 183.449 121.157,182.292 121.417,196.132 121.336 L 208.171 121.266 196.109 121.211 C 188.286 121.176,183.887 121.250,183.593 121.422 M208.873 124.428 C 208.814 126.794,208.945 127.367,209.546 127.367 C 209.910 127.367,209.907 127.330,209.525 127.043 C 209.196 126.795,209.074 126.197,209.010 124.514 L 208.925 122.309 208.873 124.428 M177.527 127.865 C 176.696 128.371,175.875 129.347,175.876 129.824 C 175.877 129.971,176.104 129.719,176.381 129.264 C 176.924 128.375,177.626 127.906,178.859 127.608 C 179.570 127.436,179.581 127.418,178.988 127.395 C 178.632 127.381,177.974 127.592,177.527 127.865 M216.125 130.817 C 216.069 132.137,215.458 133.247,214.449 133.863 C 213.992 134.141,213.756 134.369,213.923 134.370 C 215.031 134.374,216.451 132.159,216.273 130.705 L 216.166 129.831 216.125 130.817 M176.447 133.052 C 177.411 134.682,176.821 134.636,196.105 134.570 L 213.619 134.509 195.824 134.375 C 176.721 134.231,177.849 134.315,176.563 132.944 C 176.081 132.431,176.080 132.432,176.447 133.052 M90.389 156.801 C 90.182 157.296,90.013 157.843,90.013 158.017 C 90.013 158.350,88.854 163.825,85.093 181.258 C 80.227 203.815,79.803 205.971,80.141 206.485 C 80.472 206.991,102.472 207.207,106.974 206.749 C 123.493 205.068,132.720 193.312,132.225 174.578 C 131.931 163.443,128.215 158.201,119.362 156.437 C 116.863 155.939,115.770 155.901,103.720 155.901 L 90.765 155.901 90.389 156.801 M143.773 156.226 C 143.415 156.674,143.306 157.081,142.444 161.219 C 141.255 166.932,138.795 178.493,138.525 179.637 C 138.276 180.697,137.089 186.236,136.162 190.661 C 135.879 192.017,135.540 193.593,135.409 194.163 C 135.278 194.734,134.926 196.368,134.627 197.795 C 134.328 199.222,133.857 201.419,133.579 202.678 C 132.929 205.624,132.932 206.391,133.596 206.746 C 134.339 207.144,150.059 206.985,150.468 206.576 C 150.632 206.411,151.285 203.843,151.919 200.869 C 152.954 196.011,154.117 190.626,156.420 180.026 C 156.838 178.100,157.717 174.014,158.372 170.947 C 159.027 167.879,159.913 163.735,160.340 161.738 C 160.767 159.741,161.183 157.786,161.265 157.394 C 161.575 155.905,161.555 155.901,152.399 155.901 C 146.017 155.901,143.971 155.978,143.773 156.226 M203.028 156.485 C 202.832 156.806,202.309 158.761,201.866 160.830 C 201.114 164.341,199.769 170.661,197.533 181.193 C 197.018 183.619,196.317 186.887,195.974 188.457 C 195.632 190.026,194.761 194.112,194.039 197.536 C 193.317 200.960,192.603 204.285,192.453 204.924 C 191.937 207.124,190.961 207.004,209.379 207.004 L 225.445 207.004 226.020 206.420 C 226.446 205.988,226.721 205.136,227.082 203.136 C 227.743 199.476,228.337 199.742,219.471 199.737 C 215.539 199.734,212.166 199.634,211.976 199.513 C 211.658 199.312,212.487 194.689,214.004 188.197 C 214.137 187.626,214.606 185.467,215.046 183.398 C 215.486 181.329,216.198 178.003,216.628 176.005 C 217.665 171.186,218.792 165.925,219.740 161.479 C 220.166 159.481,220.562 157.624,220.620 157.351 C 220.930 155.899,220.945 155.901,211.800 155.901 L 203.384 155.901 203.028 156.485 M250.474 156.485 C 250.264 156.806,249.807 157.711,249.459 158.495 C 249.111 159.280,248.113 161.424,247.240 163.261 C 246.368 165.097,245.655 166.632,245.655 166.673 C 245.655 166.714,244.838 168.462,243.839 170.558 C 242.840 172.654,242.023 174.405,242.023 174.449 C 242.023 174.493,241.206 176.244,240.208 178.340 C 239.209 180.436,238.392 182.187,238.392 182.231 C 238.392 182.275,237.575 184.026,236.576 186.122 C 235.577 188.218,234.760 189.969,234.760 190.013 C 234.760 190.057,233.943 191.808,232.944 193.904 C 231.946 196.000,231.128 197.751,231.128 197.795 C 231.128 197.839,230.311 199.590,229.313 201.686 C 226.782 206.996,226.786 207.006,231.306 207.000 C 235.680 206.995,235.065 207.697,239.436 197.728 C 241.147 193.825,240.660 194.028,248.249 194.061 C 255.999 194.095,255.290 193.583,255.755 199.481 C 256.237 205.597,256.295 205.970,256.831 206.506 C 257.407 207.083,273.946 207.291,274.985 206.735 C 275.568 206.423,275.647 204.907,275.244 201.762 C 275.110 200.721,274.878 198.761,274.729 197.406 C 274.579 196.051,274.337 193.891,274.190 192.607 C 274.044 191.323,273.577 187.004,273.154 183.009 C 272.731 179.014,272.271 174.754,272.134 173.541 C 271.536 168.291,271.296 166.133,270.809 161.651 C 270.525 159.035,270.173 156.671,270.027 156.398 C 269.773 155.923,269.353 155.901,260.308 155.901 L 250.855 155.901 250.474 156.485 M289.918 156.485 C 289.716 156.806,289.311 158.236,289.019 159.663 C 288.726 161.089,288.064 164.241,287.549 166.667 C 287.033 169.092,286.326 172.419,285.978 174.060 C 285.630 175.700,285.118 178.093,284.840 179.377 C 284.027 183.134,282.743 189.138,282.483 190.402 C 282.350 191.044,282.000 192.678,281.705 194.034 C 281.410 195.389,281.064 197.023,280.935 197.665 C 280.807 198.307,280.404 200.228,280.039 201.933 C 279.238 205.686,279.215 206.380,279.879 206.735 C 280.555 207.097,303.881 207.092,307.411 206.730 C 319.795 205.459,327.254 198.828,326.788 189.501 C 326.588 185.491,325.124 182.602,322.311 180.664 C 320.522 179.432,320.493 179.564,322.928 177.857 C 331.676 171.727,330.298 159.850,320.495 156.891 C 317.612 156.020,315.511 155.902,302.924 155.902 L 290.284 155.901 289.918 156.485 M119.195 157.185 C 126.117 158.578,129.749 162.354,131.135 169.598 C 132.102 174.648,131.399 183.216,129.568 188.722 C 126.850 196.895,120.166 203.102,111.803 205.220 C 107.847 206.222,81.204 206.809,80.870 205.901 C 80.805 205.723,80.912 204.760,81.109 203.761 C 81.523 201.666,82.402 197.493,82.750 195.979 C 82.881 195.409,83.220 193.833,83.504 192.477 C 84.349 188.436,85.605 182.564,85.861 181.453 C 85.993 180.882,86.332 179.306,86.615 177.951 C 89.170 165.716,91.032 157.178,91.208 156.895 C 91.521 156.387,116.518 156.647,119.195 157.185 M160.571 156.906 C 160.571 157.030,160.227 158.693,159.807 160.602 C 159.386 162.511,158.682 165.765,158.241 167.834 C 157.800 169.903,157.331 172.062,157.200 172.633 C 157.068 173.204,156.717 174.838,156.420 176.265 C 156.123 177.691,155.773 179.326,155.642 179.896 C 155.511 180.467,155.161 182.101,154.864 183.528 C 154.567 184.955,154.216 186.589,154.085 187.160 C 153.953 187.730,153.497 189.831,153.072 191.829 C 150.258 205.049,150.155 205.500,149.855 205.901 C 149.480 206.402,134.150 206.368,133.957 205.866 C 133.824 205.518,134.007 204.495,135.146 199.222 C 135.439 197.866,135.787 196.232,135.920 195.590 C 136.052 194.948,136.523 192.730,136.965 190.661 C 137.844 186.554,138.072 185.484,138.484 183.528 C 138.634 182.815,138.996 181.122,139.289 179.767 C 139.582 178.411,139.998 176.427,140.213 175.357 C 140.429 174.287,140.729 172.886,140.879 172.244 C 141.295 170.462,141.564 169.234,142.142 166.472 C 142.434 165.081,142.910 162.805,143.201 161.414 C 143.492 160.023,143.858 158.388,144.013 157.782 L 144.296 156.680 152.433 156.680 C 156.909 156.680,160.571 156.781,160.571 156.906 M219.715 157.276 C 219.715 157.888,219.386 159.485,216.845 171.206 C 216.551 172.562,215.977 175.246,215.570 177.173 C 215.162 179.099,214.469 182.338,214.029 184.371 C 213.589 186.404,212.886 189.684,212.466 191.660 C 212.046 193.636,211.521 196.036,211.299 196.994 C 210.444 200.680,210.084 200.519,219.163 200.519 C 227.121 200.519,226.823 200.448,226.454 202.241 C 226.311 202.935,226.121 203.911,226.032 204.410 C 225.684 206.360,226.919 206.226,209.290 206.226 C 195.494 206.226,193.480 206.177,193.349 205.837 C 193.211 205.477,193.434 203.978,194.005 201.427 C 194.133 200.856,194.496 199.163,194.812 197.665 C 195.128 196.167,195.478 194.533,195.590 194.034 C 195.702 193.534,196.038 191.958,196.336 190.532 C 196.635 189.105,197.120 186.829,197.414 185.473 C 197.980 182.873,198.053 182.529,198.962 178.210 C 199.879 173.858,199.947 173.539,200.512 170.947 C 200.807 169.591,201.157 167.957,201.290 167.315 C 201.423 166.673,201.773 165.039,202.068 163.684 C 202.363 162.328,202.720 160.646,202.860 159.946 C 203.000 159.245,203.236 158.224,203.383 157.676 L 203.652 156.680 211.683 156.680 L 219.715 156.680 219.715 157.276 M269.760 159.339 C 269.924 160.801,270.165 162.931,270.296 164.073 C 270.541 166.219,270.878 169.281,271.336 173.541 C 271.794 177.801,272.130 180.862,272.376 183.009 C 272.506 184.150,272.739 186.310,272.892 187.808 C 273.046 189.306,273.280 191.466,273.413 192.607 C 274.504 201.969,274.813 205.318,274.630 205.795 C 274.400 206.396,257.845 206.460,257.348 205.861 C 257.182 205.660,256.935 204.172,256.799 202.554 C 256.127 194.524,256.081 194.193,255.611 193.849 C 254.814 193.267,240.924 193.376,240.423 193.969 C 240.083 194.371,238.392 197.776,238.392 198.058 C 238.392 198.168,237.898 199.292,236.115 203.243 C 234.714 206.348,234.903 206.226,231.505 206.226 C 228.080 206.226,228.052 206.200,229.079 204.021 C 230.120 201.809,232.351 197.034,233.199 195.201 C 233.596 194.345,234.356 192.711,234.889 191.569 C 236.383 188.370,237.527 185.918,238.521 183.787 C 239.021 182.717,239.838 180.966,240.337 179.896 C 240.837 178.826,241.654 177.075,242.153 176.005 C 242.652 174.935,243.483 173.155,244.000 172.049 C 244.516 170.944,245.263 169.339,245.659 168.482 C 246.055 167.626,246.967 165.679,247.686 164.155 C 248.404 162.631,249.484 160.325,250.085 159.032 L 251.178 156.680 260.320 156.680 L 269.462 156.680 269.760 159.339 M318.179 157.172 C 321.141 157.784,323.676 158.995,325.217 160.537 C 329.898 165.218,328.206 174.047,321.943 177.619 C 319.576 178.968,319.241 179.729,320.675 180.492 C 329.112 184.981,327.389 198.347,317.769 203.030 C 311.739 205.966,309.156 206.286,292.348 206.175 L 280.285 206.096 280.298 205.188 C 280.310 204.373,280.879 201.494,282.504 194.034 C 282.799 192.678,283.374 189.994,283.782 188.067 C 284.189 186.141,284.889 182.873,285.336 180.804 C 286.204 176.789,286.291 176.380,287.128 172.374 C 287.426 170.947,287.913 168.671,288.209 167.315 C 288.505 165.960,289.091 163.198,289.509 161.178 C 289.928 159.158,290.342 157.320,290.429 157.093 C 290.689 156.415,314.847 156.485,318.179 157.172 M106.753 161.688 C 106.537 162.018,106.251 162.864,106.117 163.569 C 105.982 164.274,105.579 166.193,105.220 167.834 C 104.862 169.475,104.091 173.035,103.507 175.746 C 102.924 178.457,102.338 181.141,102.206 181.712 C 101.930 182.898,100.593 189.124,100.033 191.829 C 99.826 192.827,99.354 195.040,98.985 196.745 C 97.903 201.742,98.020 201.991,101.322 201.742 C 108.636 201.189,112.798 192.716,115.305 173.281 C 116.553 163.603,115.424 161.103,109.798 161.094 C 107.311 161.090,107.121 161.127,106.753 161.688 M306.278 161.463 C 305.931 161.810,305.534 163.290,304.290 168.872 C 302.173 178.375,302.071 177.845,305.965 177.641 C 311.911 177.329,315.879 168.805,312.674 163.229 C 311.593 161.349,307.518 160.224,306.278 161.463 M113.126 162.457 C 115.078 163.760,115.397 166.760,114.388 174.320 C 112.025 192.037,108.023 200.331,101.550 200.932 C 98.743 201.193,98.778 201.368,100.264 194.482 C 101.647 188.074,101.793 187.394,104.787 173.411 C 105.948 167.990,107.019 163.174,107.166 162.711 L 107.433 161.868 109.839 161.868 C 111.908 161.868,112.368 161.950,113.126 162.457 M310.792 162.453 C 314.647 165.016,312.564 175.366,307.934 176.652 C 306.777 176.973,304.276 176.985,303.780 176.671 C 303.418 176.441,305.990 163.615,306.658 162.322 C 307.027 161.608,309.645 161.691,310.792 162.453 M252.429 167.669 C 252.175 167.975,251.348 169.696,249.545 173.671 C 249.221 174.384,248.447 176.058,247.824 177.391 C 247.202 178.724,246.693 179.851,246.693 179.896 C 246.693 179.941,246.183 181.069,245.560 182.401 C 243.448 186.922,243.209 187.574,243.498 188.032 C 243.853 188.596,254.279 188.812,254.932 188.270 C 255.355 187.919,255.297 185.245,254.738 179.248 C 254.599 177.750,254.363 175.065,254.215 173.281 C 253.758 167.769,253.367 166.539,252.429 167.669 M253.448 173.481 C 253.604 175.297,253.836 177.951,253.963 179.377 C 254.091 180.804,254.276 183.285,254.374 184.890 L 254.554 187.808 249.456 187.808 C 243.454 187.808,243.769 188.079,245.490 184.395 C 246.112 183.062,246.858 181.446,247.146 180.804 C 247.435 180.162,247.934 179.053,248.254 178.340 C 253.149 167.458,252.947 167.646,253.448 173.481 M301.650 182.401 C 300.987 182.944,297.899 196.686,297.598 200.433 C 297.430 202.524,300.762 203.141,303.790 201.577 C 309.859 198.444,312.139 185.338,307.072 182.718 C 305.969 182.147,302.227 181.929,301.650 182.401 M306.945 183.587 C 310.042 185.396,309.695 193.296,306.304 198.205 C 304.646 200.605,302.882 201.556,300.089 201.556 C 297.850 201.556,297.786 202.825,300.770 188.067 C 301.669 183.622,301.634 183.747,302.127 183.253 C 302.704 182.677,305.749 182.888,306.945 183.587 M163.067 186.316 C 162.864 186.637,162.445 188.067,162.136 189.494 C 161.826 190.921,161.526 192.237,161.467 192.418 C 161.047 193.722,161.540 193.774,174.290 193.774 C 188.494 193.774,187.012 194.218,187.962 189.676 C 188.882 185.280,190.289 185.733,175.720 185.733 L 163.436 185.733 163.067 186.316 M187.549 187.270 C 187.549 189.105,186.484 192.734,185.904 192.875 C 185.596 192.949,180.208 192.978,173.930 192.938 L 162.516 192.866 162.537 191.958 C 162.568 190.590,163.430 186.928,163.772 186.710 C 163.937 186.605,169.355 186.517,175.811 186.515 L 187.549 186.511 187.549 187.270 " stroke="none" fill="#9ab9d5" fill-rule="evenodd"></path></g></svg>